<?xml version="1.0" encoding="utf-8"?>
<!-- Generator: Adobe Illustrator 16.0.0, SVG Export Plug-In . SVG Version: 6.00 Build 0)  -->
<!DOCTYPE svg PUBLIC "-//W3C//DTD SVG 1.1//EN" "http://www.w3.org/Graphics/SVG/1.1/DTD/svg11.dtd">
<svg version="1.1" id="Layer_1" xmlns="http://www.w3.org/2000/svg" xmlns:xlink="http://www.w3.org/1999/xlink" x="0px" y="0px"
	 width="26px" height="26px" viewBox="0 0 26 26" enable-background="new 0 0 26 26" xml:space="preserve">
<path fill="#FFFFFF" d="M13,26C5.8,26,0,20.2,0,13S5.8,0,13,0s13,5.8,13,13S20.2,26,13,26z M13,1C6.4,1,1,6.4,1,13
	c0,6.6,5.4,12,12,12c6.6,0,12-5.4,12-12C25,6.4,19.6,1,13,1z"/>
<path fill="#FFFFFF" d="M16.9,16c-1,0-1.8,0.5-2.3,1.2l-6.1-3.2c0.1-0.3,0.2-0.6,0.2-0.9c0-0.3-0.1-0.6-0.2-0.9l6.1-3.2
	C15.1,9.5,16,10,16.9,10c1.6,0,3-1.3,3-3s-1.3-3-3-3c-1.6,0-3,1.3-3,3c0,0.3,0.1,0.6,0.2,0.9L8,11.2C7.5,10.5,6.7,10,5.7,10
	c-1.6,0-3,1.3-3,3c0,1.6,1.3,3,3,3c1,0,1.8-0.5,2.3-1.2l6.1,3.2C14,18.3,14,18.7,14,19c0,1.6,1.3,3,3,3c1.6,0,3-1.3,3-3
	C19.9,17.3,18.6,16,16.9,16z"/>
</svg>
