<?xml version="1.0" encoding="utf-8"?>
<!-- Generator: Adobe Illustrator 16.0.0, SVG Export Plug-In . SVG Version: 6.00 Build 0)  -->
<!DOCTYPE svg PUBLIC "-//W3C//DTD SVG 1.1//EN" "http://www.w3.org/Graphics/SVG/1.1/DTD/svg11.dtd">
<svg version="1.1" id="Layer_1" xmlns="http://www.w3.org/2000/svg" xmlns:xlink="http://www.w3.org/1999/xlink" x="0px" y="0px"
	 width="26px" height="26px" viewBox="0 0 26 26" enable-background="new 0 0 26 26" xml:space="preserve">
<path fill="#FFFFFF" d="M13,26C5.8,26,0,20.2,0,13C0,5.8,5.8,0,13,0c7.2,0,13,5.8,13,13C26,20.2,20.2,26,13,26z M13,1
	C6.4,1,1,6.4,1,13c0,6.6,5.4,12,12,12s12-5.4,12-12C25,6.4,19.6,1,13,1z"/>
<circle fill="#77BF43" cx="13" cy="13" r="10.7"/>
<polygon fill="#FFFFFF" points="9.5,18.6 5.2,13.4 5.9,12.8 9.6,17.2 20.8,9.2 21.3,10 "/>
</svg>
