<?xml version="1.0" encoding="utf-8"?>
<!-- Generator: Adobe Illustrator 16.0.0, SVG Export Plug-In . SVG Version: 6.00 Build 0)  -->
<!DOCTYPE svg PUBLIC "-//W3C//DTD SVG 1.1//EN" "http://www.w3.org/Graphics/SVG/1.1/DTD/svg11.dtd">
<svg version="1.1" id="Layer_1" xmlns="http://www.w3.org/2000/svg" xmlns:xlink="http://www.w3.org/1999/xlink" x="0px" y="0px"
	 width="80px" height="117.5px" viewBox="0 0 80 117.5" enable-background="new 0 0 80 117.5" xml:space="preserve">
<g>
	<ellipse fill="#E6E7E8" cx="40" cy="113.1" rx="40" ry="4.4"/>
	<g>
		
			<rect x="65.5" y="67" transform="matrix(0.9573 -0.2892 0.2892 0.9573 -19.9564 23.0058)" fill="#F1F2F2" width="4.7" height="24"/>
		
			<rect x="64.8" y="67.1" transform="matrix(0.9572 -0.2895 0.2895 0.9572 -19.3207 22.7216)" fill="#BCBEC0" width="4.7" height="19.1"/>
		
			<rect x="9.8" y="67.1" transform="matrix(-0.9573 -0.2892 0.2892 -0.9573 0.8521 158.3373)" fill="#F1F2F2" width="4.7" height="24"/>
		
			<rect x="10.5" y="67.2" transform="matrix(-0.9572 -0.2895 0.2895 -0.9572 2.8837 153.9182)" fill="#BCBEC0" width="4.7" height="19.1"/>
		<g>
			<polygon fill="#FFFFFF" points="65.2,84.3 15,84.3 12.9,69.3 67.3,69.3 			"/>
			<g opacity="0.6">
				<polygon fill="#F1F2F2" points="35.1,69.3 35.1,84.3 41.8,84.3 42.9,69.3 				"/>
				<polygon fill="#BCBEC0" points="27.9,69.3 28.4,84.3 35.1,84.3 35.1,69.3 				"/>
				<polygon fill="#F1F2F2" points="20.2,69.3 21.9,84.3 28.4,84.3 27.9,69.3 				"/>
				<polygon fill="#BCBEC0" points="12.9,69.3 15,84.3 21.9,84.3 20.2,69.3 				"/>
				<polygon fill="#BCBEC0" points="42.9,69.3 41.8,84.3 49,84.3 51,69.3 				"/>
				<polygon fill="#BCBEC0" points="67.3,69.3 59.4,69.3 55.7,84.3 65.2,84.3 				"/>
				<polygon fill="#F1F2F2" points="51,69.3 49,84.3 55.7,84.3 59.4,69.3 				"/>
			</g>
			<g opacity="0.7">
				<polygon fill="#BCBEC0" points="67.3,69.3 12.9,69.3 13.5,73.3 66.8,73.3 				"/>
				<polygon fill="#BCBEC0" points="15,84.3 65.2,84.3 66,79 14.3,79 				"/>
			</g>
		</g>
		<polygon fill="#FFFFFF" points="31.8,69.3 40.1,77.7 48.2,69.3 		"/>
		<rect x="25.2" y="84.3" fill="#A7A9AC" width="6.4" height="24.5"/>
		<rect x="46" y="84.3" fill="#A7A9AC" width="6.4" height="24.5"/>
		<polygon fill="#939598" points="25.2,108.8 18.8,113.1 31.6,113.1 31.6,108.8 		"/>
		<polygon fill="#939598" points="52.4,108.8 58.8,113.1 46,113.1 46,108.8 		"/>
		<g>
			<path fill="#FFFFFF" d="M62.5,76.8c0,0.8-0.6,1.4-1.4,1.4l-4.4,0.1c-0.8,0-1.4-0.6-1.4-1.4l-0.1-4.3c0-0.8,0.6-1.4,1.4-1.4
				l4.4-0.1c0.8,0,1.4,0.6,1.4,1.4L62.5,76.8z"/>
			<g>
				<path fill="#6D6E71" d="M57.7,73.9v2.3H57v-2.3h-0.7v-0.5h2.1v0.5H57.7z"/>
				<path fill="#6D6E71" d="M60.3,76.2h-0.6l-1.1-2.8h0.7l0.7,2l0.6-2h0.7L60.3,76.2z"/>
			</g>
		</g>
		<g>
			<path fill="#A7A9AC" d="M67.2,41c0,0,5.2-8.6,0.8-17.3c-4.4-8.7-16.4,0-16.4,0L67.2,41z"/>
			<path fill="#F1F2F2" d="M67.2,38.5c0-11.7-9.5-21.2-21.2-21.2H34c-11.7,0-21.2,9.5-21.2,21.2v30.9h54.3L67.2,38.5L67.2,38.5z"/>
			<ellipse fill="#A7A9AC" cx="40.2" cy="60.9" rx="14.9" ry="6.6"/>
			<path fill="#A7A9AC" d="M12.9,51.8c0,0,3.4,8.1,13.3,8.2c10,0.1,14.7,0,14.7,0l0.6,9.4H12.9V51.8z"/>
			<path fill="#A7A9AC" d="M67.1,51.8c0,0-3.4,8.1-13.3,8.2c-10,0.1-2.6,0-2.6,0l-12.7,9.3h28.7L67.1,51.8z"/>
			<path fill="#777777" d="M60.2,39.4c0,0.5-0.4,0.9-0.8,0.9l-10.7,0.3c-0.5,0-0.9-0.4-0.9-0.9v-1.1c0-0.5,0.4-0.9,0.8-0.9l10.7-0.3
				c0.5,0,0.9,0.4,0.9,0.9V39.4z"/>
			<path fill="#777777" d="M32.3,39.4c0,0.5-0.4,0.9-0.8,0.9l-10.7,0.3c-0.5,0-0.9-0.4-0.9-0.9v-1.1c0-0.5,0.4-0.9,0.8-0.9l10.7-0.3
				c0.5,0,0.9,0.4,0.9,0.9V39.4z"/>
			<path fill="#D1D3D4" d="M39.5,53.7c-0.5,0-0.9-0.4-0.9-0.9V41.2c0-0.5,0.4-0.9,0.9-0.9h1.2c0.5,0,0.9,0.4,0.9,0.9v11.5
				c0,0.5-0.4,0.9-0.9,0.9h-1.2V53.7z"/>
			<circle fill="#777777" cx="53.9" cy="45" r="2"/>
			<circle fill="#777777" cx="26.1" cy="45" r="2"/>
			<path fill="#A7A9AC" d="M30.1,58.5L30.1,58.5c0,5,4.8,9,10.8,9s10.8-4,10.8-8.9v-0.1H30.1z"/>
			<path fill="#A7A9AC" d="M13,40.8c0,0-13.7-24.1,5.4-24.7c19-0.6,0,2.4,0,2.4S25.5,3,45.1,10.7c0,0,17.7,0.6,10.6-10.7
				c0,0,8,0.6,7,11.3c0,0,5,1.8,5-4.8c0,0,10.7,38.1-29.8,21.4c0,0-7.8-4.1-10.3-4.4C25.2,23.3,17.1,21.5,13,40.8z"/>
			<g>
				<path fill="#6D5F58" d="M19.8,16c-1,1.4-1.5,2.4-1.5,2.4S36.3,15.6,19.8,16z"/>
				<path fill="#BCBEC0" d="M18.3,18.4c0,0,0.5-1,1.5-2.4c-0.5,0-1,0-1.5,0c-11.7,0.4-11,9.7-8.8,16.7l0,0c0,0,3.7-10.3,9.3-11
					c5.6-0.7,4.2-1.4,4.2-1.4s3.1-3.4,14.3-3.2c11.2,0.2,14.5,2.1,17.9,0.1s4.8-2.7,4.8-2.7l-2.3,5.8l3.9,1.8c0,0,2.5,4.8,1,6.4
					c-0.6,0.6,0.8,0.5,2.8-0.1c6.6-7.1,2.5-21.9,2.5-21.9c0,6.5-5,4.8-5,4.8c1-10.7-7-11.3-7-11.3c7,11.3-10.6,10.7-10.6,10.7
					C30.5,5,22.8,12,19.8,16"/>
			</g>
			<g>
				<path fill="#9E9E9E" d="M30.1,54.3h-8.5c-4.6,0-8.3-3.7-8.3-8.3v-8.1c0-0.2,0-0.4,0-0.6l0.1-1.6h24.9l0.1,1.5c0,0.2,0,0.4,0,0.6
					V46C38.5,50.6,34.7,54.3,30.1,54.3z M16.5,39v7c0,2.8,2.3,5.1,5.1,5.1h8.5c2.8,0,5.1-2.3,5.1-5.1v-7H16.5z"/>
				<path fill="#9E9E9E" d="M58.6,54.3h-8.5c-4.6,0-8.3-3.7-8.3-8.3v-8.1c0-0.2,0-0.4,0-0.6l0.1-1.5h24.9l0.1,1.5c0,0.2,0,0.4,0,0.6
					V46C66.9,50.6,63.2,54.3,58.6,54.3z M44.9,39v7c0,2.8,2.3,5.1,5.1,5.1h8.5c2.8,0,5.1-2.3,5.1-5.1v-7H44.9z"/>
				<path fill="#9E9E9E" d="M42.5,39.2c-2-1.3-5.1-0.3-5.1-0.3l-1-3.1c0.2-0.1,4.5-1.5,7.9,0.7L42.5,39.2z"/>
			</g>
			<g>
				<path fill="#FFFFFF" d="M31,61.9c0,0,1.1-0.5,2.7-1c0.8-0.3,1.8-0.5,2.8-0.8c0.5-0.1,1.1-0.2,1.6-0.3c0.6-0.1,1.1-0.2,1.7-0.3
					c1.1-0.2,2.2-0.3,3.3-0.4c1.1-0.1,2.1-0.2,2.9-0.2c1.7-0.1,2.9,0,2.9,0c0.6,0.1,1.1,0.6,1.1,1.3c0,0.4-0.3,0.8-0.7,1
					c0,0-1.1,0.5-2.7,1c-0.8,0.3-1.8,0.5-2.8,0.8c-1,0.2-2.2,0.5-3.3,0.7c-0.6,0.1-1.1,0.2-1.7,0.3c-0.6,0.1-1.1,0.2-1.6,0.2
					c-1.1,0.1-2.1,0.2-2.9,0.2c-1.7,0.1-2.9-0.1-2.9-0.1c-0.6-0.1-1.1-0.7-1.1-1.3C30.4,62.4,30.7,62,31,61.9z"/>
			</g>
		</g>
	</g>
</g>
</svg>
