<?xml version="1.0" encoding="utf-8"?>
<!-- Generator: Adobe Illustrator 16.0.0, SVG Export Plug-In . SVG Version: 6.00 Build 0)  -->
<!DOCTYPE svg PUBLIC "-//W3C//DTD SVG 1.1//EN" "http://www.w3.org/Graphics/SVG/1.1/DTD/svg11.dtd">
<svg version="1.1" id="Layer_1" xmlns="http://www.w3.org/2000/svg" xmlns:xlink="http://www.w3.org/1999/xlink" x="0px" y="0px"
	 width="15.7px" height="17.6px" viewBox="0 0 15.7 17.6" enable-background="new 0 0 15.7 17.6" xml:space="preserve">
<path fill="#FFFFFF" d="M15.4,8.5L8.7,0.4C8.3-0.1,7.4-0.1,7,0.4L0.2,8.6C0,8.9-0.1,9.4,0.1,9.7s0.5,0.6,0.9,0.6h3.3v6.2
	c0,0.6,0.5,1,1,1h4.9c0.6,0,1-0.5,1-1v-6.2h3.3c0,0,0,0,0,0c0.6,0,1-0.5,1-1C15.7,9,15.6,8.7,15.4,8.5z"/>
</svg>
