<?xml version="1.0" encoding="utf-8"?>
<!-- Generator: Adobe Illustrator 16.0.0, SVG Export Plug-In . SVG Version: 6.00 Build 0)  -->
<!DOCTYPE svg PUBLIC "-//W3C//DTD SVG 1.1//EN" "http://www.w3.org/Graphics/SVG/1.1/DTD/svg11.dtd">
<svg version="1.1" id="Layer_1" xmlns="http://www.w3.org/2000/svg" xmlns:xlink="http://www.w3.org/1999/xlink" x="0px" y="0px"
	 width="20px" height="20px" viewBox="0 0 20 20" enable-background="new 0 0 20 20" xml:space="preserve">
<g>
	<g opacity="0.3">
		<path d="M15.4,8.3L7.9,4.7C7.3,4.4,6.6,4.5,6,4.8c-0.6,0.4-0.9,1-0.9,1.7v7.1c0,0.7,0.3,1.3,0.9,1.7c0.3,0.2,0.7,0.3,1,0.3
			c0.3,0,0.6-0.1,0.8-0.2l7.4-3.6c0.7-0.3,1.1-1,1.1-1.8C16.5,9.3,16.1,8.6,15.4,8.3z"/>
		<path d="M10,0C4.5,0,0,4.5,0,10s4.5,10,10,10s10-4.5,10-10S15.5,0,10,0z M10,17c-3.9,0-7-3.1-7-7c0-3.9,3.1-7,7-7s7,3.1,7,7
			C17,13.8,13.9,17,10,17z"/>
	</g>
	<g>
		<path fill="#FFFFFF" d="M15,9.1L7.6,5.5C7.2,5.3,6.8,5.4,6.5,5.6S6,6.1,6,6.5v7.1c0,0.4,0.2,0.7,0.5,0.9c0.2,0.1,0.4,0.2,0.6,0.2
			c0.2,0,0.3,0,0.5-0.1l7.4-3.6c0.4-0.2,0.6-0.6,0.6-1C15.6,9.6,15.4,9.3,15,9.1z"/>
		<path fill="#FFFFFF" d="M10,0.9C5,0.9,0.9,5,0.9,10c0,5,4.1,9.1,9.1,9.1s9.1-4.1,9.1-9.1C19.1,5,15,0.9,10,0.9z M10,17.8
			c-4.3,0-7.8-3.5-7.8-7.8c0-4.3,3.5-7.8,7.8-7.8s7.8,3.5,7.8,7.8C17.8,14.3,14.3,17.8,10,17.8z"/>
	</g>
</g>
</svg>
